<svg width="187" height="31" viewBox="0 0 187 31" fill="none" xmlns="http://www.w3.org/2000/svg">
<path fill-rule="evenodd" clip-rule="evenodd" d="M9.57562 8.46296C7.8122 8.46296 6.22174 9.56181 5.54351 11.2487C4.92467 12.7879 4.08942 16.6039 3.71183 18.4258C3.60727 18.9304 3.56379 19.3637 3.59734 19.7529C3.70977 21.0564 4.09963 21.6791 4.46384 21.9991C4.84623 22.3351 5.42704 22.537 6.27559 22.537C7.20976 22.537 8.07802 22.0384 8.57314 21.2173L10.9242 17.3188L14.0501 11.9197L13.3212 10.6607C13.3212 10.6607 13.3212 10.6607 13.3212 10.6607C12.5318 9.29723 11.11 8.46296 9.57562 8.46296ZM15.7172 9.04181C14.4006 6.84185 12.0786 5.5 9.57562 5.5C6.658 5.5 4.02654 7.31807 2.90438 10.1091C2.16075 11.9587 1.27142 16.0913 0.916541 17.8037C0.779721 18.4639 0.68087 19.2191 0.749644 20.0166C0.908021 21.853 1.52024 23.2973 2.6149 24.2591C3.69139 25.205 5.0262 25.5 6.27559 25.5C8.19553 25.5 9.98003 24.475 10.9976 22.7877L13.3556 18.8778L13.3692 18.8548L15.7172 14.7993L18.0652 18.8548L18.0788 18.8778L20.4368 22.7877C21.4543 24.475 23.2388 25.5 25.1588 25.5C26.5637 25.5 28.024 25.0847 29.1206 23.8916C30.208 22.7081 30.7272 20.9877 30.7272 18.8333C30.7272 17.4664 30.227 15.4761 29.7633 13.883C29.28 12.2225 28.7585 10.7424 28.5982 10.2953C28.5609 10.191 28.5162 10.0719 28.462 9.94557C27.3041 7.24716 24.7189 5.5 21.8587 5.5C19.3558 5.5 17.0338 6.84187 15.7172 9.04181ZM17.3843 11.9197L20.5101 17.3188L22.8613 21.2173C23.3563 22.0384 24.2246 22.537 25.1588 22.537C26.0397 22.537 26.6488 22.2849 27.0502 21.8481C27.4607 21.4015 27.8682 20.5293 27.8682 18.8333C27.8682 17.9679 27.5042 16.3813 27.026 14.7387C26.5676 13.1634 26.0692 11.7486 25.9181 11.3271C25.8916 11.2529 25.8701 11.1972 25.8497 11.1496C25.1499 9.51896 23.5875 8.46296 21.8587 8.46296C20.3244 8.46296 18.9026 9.29726 18.1132 10.6608L17.3843 11.9197Z" fill="black"/>
<path fill-rule="evenodd" clip-rule="evenodd" d="M63.0634 20.4502C62.6134 20.7502 62.3134 20.7502 62.0134 20.9002C61.7135 20.9002 61.5635 21.0502 61.4135 21.2002C61.1135 21.2002 61.1134 21.5002 61.1134 21.6502C61.1134 21.8002 61.1134 21.9502 60.9634 22.1002C60.8134 22.2502 60.5134 22.2502 60.2134 22.2502C59.7634 22.2502 59.1634 22.2502 58.5634 22.5502C58.2634 22.7002 57.9634 22.8502 57.6634 23.0002C57.0634 23.4502 56.4634 23.7502 55.2634 23.7502C54.0634 23.7502 53.4634 23.3002 52.8634 23.0002C52.5634 22.8502 52.2634 22.5502 51.9634 22.5502C51.3634 22.4002 50.7634 22.2502 50.3134 22.2502C50.0134 22.2502 49.7134 22.2502 49.5634 22.1002C49.1134 21.9502 49.1134 21.8002 49.1134 21.6502C49.1134 21.5002 49.1134 21.2002 48.8134 21.2002C48.6634 21.0502 48.3634 21.0502 48.2134 20.9002C47.9134 20.7502 47.6134 20.7502 47.1634 20.4502C46.7134 20.1502 47.0134 20.0002 47.1634 19.8502C50.0134 18.5002 50.4634 16.2502 50.4634 16.1002C50.4634 15.9502 50.4634 15.8002 50.3134 15.6502C50.1634 15.5002 49.7135 15.2002 49.2635 15.0502C49.1135 14.9002 48.9635 14.9002 48.8135 14.7502C48.3635 14.4502 48.2134 14.1502 48.3634 13.8502C48.5134 13.5502 48.6635 13.5502 48.9635 13.5502C49.1134 13.5502 49.1135 13.5502 49.2635 13.5502C49.5635 13.5502 49.8635 13.7002 50.0135 13.8502C50.1635 13.8502 50.3134 14.0002 50.4634 14.0002C50.4634 14.0002 50.4634 14.0002 50.6134 14.0002C50.7634 14.0002 50.7635 14.0002 50.7635 13.7002L50.7635 13.5502C50.7635 13.1002 50.6135 12.0502 50.7635 11.3002C50.9135 10.1002 51.2135 9.35016 51.8135 8.90016C52.1135 8.60016 53.1635 7.55016 55.2635 7.55016C57.3635 7.55016 58.4134 8.75016 58.7134 8.90016C59.1634 9.50016 59.6135 10.1002 59.7635 11.3002C59.9135 12.2002 59.7635 13.1002 59.7635 13.7002C59.7635 13.8502 59.7634 14.0002 59.9134 14.0002C59.9134 14.0002 59.9135 14.0002 60.0635 14.0002C60.2135 14.0002 60.3635 13.8502 60.5135 13.8502C60.8135 13.7002 60.9635 13.7002 61.2635 13.5502C61.2635 13.5502 61.4134 13.5502 61.5634 13.5502C61.8634 13.5502 62.0135 13.7002 62.1635 13.8502C62.3135 14.1502 62.1634 14.4502 61.7134 14.7502C61.5634 14.7502 61.4135 14.9002 61.2635 15.0502C60.9635 15.3502 60.3634 15.6502 60.2134 15.6502C60.0634 15.8002 60.0635 15.9502 60.0635 16.1002C60.0635 16.2502 60.5134 18.3502 63.3634 19.8502C63.3634 20.0002 63.6634 20.1502 63.0634 20.4502Z" stroke="black" stroke-width="0.879796" stroke-miterlimit="10" stroke-linejoin="round"/>
<path d="M55.1136 30.5C63.3979 30.5 70.1136 23.7843 70.1136 15.5C70.1136 7.21573 63.3979 0.5 55.1136 0.5C46.8293 0.5 40.1136 7.21573 40.1136 15.5C40.1136 23.7843 46.8293 30.5 55.1136 30.5Z" stroke="black" stroke-width="0.879796" stroke-miterlimit="10" stroke-linejoin="round"/>
<g clip-path="url(#clip0_32_2925)">
<path d="M105.928 0.5L83.0714 0.5C81.1021 0.5 79.4999 2.10214 79.4999 4.07142L79.4999 26.9285C79.4999 28.8978 81.1021 30.4999 83.0714 30.4999H105.928C107.898 30.4999 109.5 28.8978 109.5 26.9285L109.5 4.07142C109.5 2.10214 107.898 0.5 105.928 0.5ZM103.076 13.5878C102.912 13.6038 102.747 13.6121 102.583 13.6128C101.694 13.613 100.819 13.3918 100.038 12.9693C99.2559 12.5468 98.5917 11.9363 98.1049 11.1928L98.1049 19.4335C98.1049 20.6382 97.7477 21.8157 97.0784 22.8174C96.4092 23.819 95.4579 24.5996 94.345 25.0606C93.2321 25.5216 92.0074 25.6422 90.826 25.4072C89.6445 25.1722 88.5592 24.5921 87.7074 23.7403C86.8556 22.8885 86.2755 21.8033 86.0405 20.6218C85.8055 19.4403 85.9261 18.2157 86.3871 17.1027C86.8481 15.9898 87.6288 15.0386 88.6304 14.3693C89.632 13.7 90.8096 13.3428 92.0142 13.3428C92.1413 13.3428 92.2656 13.3543 92.3906 13.3621L92.3906 16.3635C92.2656 16.3485 92.1428 16.3257 92.0142 16.3257C91.1898 16.3257 90.3991 16.6532 89.8161 17.2362C89.2331 17.8191 88.9056 18.6098 88.9056 19.4343C88.9056 20.2587 89.2331 21.0494 89.8161 21.6323C90.3991 22.2153 91.1898 22.5428 92.0142 22.5428C93.7313 22.5428 95.2478 21.19 95.2478 19.4728L95.2778 5.47713H98.1492C98.2804 6.72477 98.846 7.88659 99.747 8.75945C100.648 9.63231 101.827 10.1607 103.078 10.2521L103.078 13.5878" fill="black"/>
</g>
<path fill-rule="evenodd" clip-rule="evenodd" d="M118.886 10.7L118.886 12.3C119.141 12.5 119.141 13.1 119.141 13.3C119.141 13.7 119.395 14.1 119.395 14.3C119.649 14.9 119.903 15.5 120.412 16.1C121.429 16.9 122.954 17.7 124.225 17.9C124.988 17.3 125.242 16.1 124.734 15.3C124.48 14.5 123.717 14.1 123.463 13.1C121.937 8.3 127.785 2.9 135.158 3.1C137.7 3.3 139.48 4.1 141.005 5.1C142.276 6.1 143.293 7.7 143.547 9.5C144.056 14.1 141.005 20.1 135.412 19.3C128.547 18.3 137.954 9.7 133.886 7.5C131.598 6.3 129.31 7.5 128.547 8.7C127.531 10.3 127.022 12.3 128.039 14.1C128.039 14.3 128.293 14.5 128.293 14.7C128.293 14.9 128.039 15.3 128.039 15.3C127.276 18.5 126.005 21.3 125.242 24.5C124.988 26.3 124.988 28.9 125.242 30.5C126.005 30.3 127.276 29.3 127.531 28.7C129.564 26.7 130.581 23.1 131.09 20.5C132.361 20.7 133.632 22.3 137.192 22.3C143.802 22.3 147.869 17.7 148.632 13.1C148.632 12.7 148.886 11.7 148.886 11.5L148.886 10.1C148.632 9.7 148.632 9.1 148.632 8.9C147.869 3.7 142.531 1.1 136.683 0.5C136.175 0.5 135.412 0.5 135.158 0.5L133.378 0.5C132.869 0.5 132.107 0.5 131.853 0.5C126.259 1.1 120.92 4.1 119.395 8.5C119.141 9.3 118.886 10.7 118.886 10.7Z" fill="black"/>
<path d="M179.523 25.4998H167.023C163.273 25.4998 160.773 22.9998 160.773 19.2498L160.773 11.7498C160.773 7.99977 163.273 5.49977 167.023 5.49977L179.523 5.49977C183.273 5.49977 185.773 7.99977 185.773 11.7498L185.773 19.2498C185.773 22.9998 183.273 25.4998 179.523 25.4998Z" stroke="black" stroke-width="0.879796" stroke-miterlimit="10" stroke-linecap="round" stroke-linejoin="round"/>
<path d="M172.523 12.3752L175.648 14.2502C176.773 15.0002 176.773 16.1252 175.648 16.8752L172.523 18.7502C171.273 19.5002 170.273 18.8752 170.273 17.5002L170.273 13.7502C170.273 12.1252 171.273 11.6252 172.523 12.3752Z" stroke="black" stroke-width="0.879796" stroke-miterlimit="10" stroke-linecap="round" stroke-linejoin="round"/>
<defs>
<clipPath id="clip0_32_2925">
<rect width="30" height="30" fill="white" transform="translate(79.5 0.5)"/>
</clipPath>
</defs>
</svg>
